<?xml version="1.0" standalone="no"?>
<!DOCTYPE svg PUBLIC "-//W3C//DTD SVG 20010904//EN"
 "http://www.w3.org/TR/2001/REC-SVG-20010904/DTD/svg10.dtd">
<svg version="1.0" xmlns="http://www.w3.org/2000/svg"
 width="192.000000pt" height="192.000000pt" viewBox="0 0 192.000000 192.000000"
 preserveAspectRatio="xMidYMid meet">

<g transform="translate(0.000000,192.000000) scale(0.100000,-0.100000)"
fill="#000000" stroke="none">
<path d="M865 1910 c-318 -27 -615 -233 -760 -525 -133 -266 -133 -588 -2
-850 117 -234 323 -410 572 -488 162 -50 317 -57 484 -22 378 79 675 389 742
773 7 37 10 124 7 206 -4 133 -7 148 -44 258 -147 427 -546 686 -999 648z
m662 -471 c14 -14 6 -39 -12 -39 -18 0 -28 17 -21 35 6 18 18 19 33 4z m-1027
-146 l0 -138 43 67 c23 36 62 98 87 137 l45 70 63 1 c65 0 70 -3 47 -34 -18
-24 -10 -39 15 -26 27 15 77 12 110 -5 l30 -16 0 41 0 40 55 0 54 0 3 -91 3
-92 55 89 56 89 58 3 59 3 -17 -25 -16 -25 36 24 c41 28 121 34 164 12 29 -15
70 -72 70 -98 0 -16 -8 -19 -54 -19 -46 0 -56 3 -61 21 -9 29 -59 23 -63 -8
-3 -18 8 -28 66 -57 86 -43 112 -74 112 -132 0 -81 -74 -133 -169 -120 -25 4
-78 7 -117 6 l-71 -1 -56 88 -57 88 0 -87 0 -88 -55 0 c-31 0 -55 4 -55 10 0
6 -10 4 -22 -4 -17 -10 -54 -15 -134 -15 -122 0 -163 14 -186 64 -6 14 -14 25
-18 25 -4 0 -19 -18 -34 -40 -26 -40 -27 -40 -91 -40 l-65 0 0 210 0 210 55 0
55 0 0 -137z m40 -338 c17 -9 30 -11 30 -5 0 6 24 10 55 10 l55 0 0 -130 0
-130 -30 0 -29 0 -3 102 c-2 70 -7 103 -15 106 -9 2 -13 -9 -13 -35 0 -29 -11
-57 -42 -106 -41 -63 -45 -67 -81 -67 -33 0 -37 2 -28 18 5 10 17 24 25 32 22
17 20 30 -4 30 -34 0 -70 44 -70 85 0 46 13 71 48 89 35 20 66 20 102 1z m380
-24 c0 -36 -78 -221 -96 -228 -7 -2 -24 -3 -37 -1 l-25 3 48 103 49 102 -55 0
c-51 0 -54 1 -54 25 0 25 1 25 85 25 l85 0 0 -29z m210 4 c0 -22 -4 -25 -40
-25 -36 0 -40 -2 -40 -25 0 -22 4 -25 39 -25 33 0 40 -4 43 -22 2 -17 12 -7
51 50 43 66 50 72 82 72 l34 0 3 -72 3 -71 48 71 c43 66 50 72 82 72 l35 0 0
-130 0 -130 -35 0 -34 0 -3 76 -3 76 -53 -76 c-46 -66 -57 -76 -83 -76 l-31 0
4 75 c2 41 1 75 -2 75 -3 0 -27 -34 -54 -75 -44 -69 -51 -75 -82 -75 -19 0
-34 3 -34 6 0 3 14 25 30 50 l31 44 -36 0 -35 0 0 -50 c0 -49 -1 -50 -30 -50
l-30 0 0 130 0 130 70 0 c68 0 70 -1 70 -25z m-380 -205 c0 -27 -3 -30 -30
-30 -27 0 -30 3 -30 30 0 27 3 30 30 30 27 0 30 -3 30 -30z m-225 -94 c12 -18
14 -30 7 -43 -7 -13 -6 -24 3 -36 12 -17 17 -13 55 42 40 60 41 61 88 61 46 0
48 -1 79 -52 l32 -53 1 53 0 52 71 0 c71 0 104 -10 126 -39 11 -14 12 -12 13
12 0 22 4 27 25 27 24 0 25 -2 25 -70 0 -63 2 -70 20 -70 18 0 20 7 20 70 l0
70 48 0 c46 0 47 -1 77 -53 l30 -52 3 53 c3 48 5 52 28 52 18 0 24 -5 24 -21
l0 -20 26 20 c35 27 93 27 128 0 14 -11 26 -25 26 -30 0 -13 -54 -11 -67 2
-18 18 -62 2 -69 -25 -9 -36 12 -66 46 -66 16 0 32 5 35 10 4 6 -5 10 -19 10
-19 0 -26 5 -26 20 0 18 7 20 55 20 61 0 67 -8 41 -59 -31 -60 -128 -67 -160
-12 -8 14 -11 12 -16 -9 -10 -43 -36 -35 -74 22 l-36 53 0 -53 c0 -49 -2 -52
-25 -52 -20 0 -25 5 -25 26 l0 27 -21 -27 c-13 -17 -30 -26 -48 -26 -32 0 -71
25 -71 46 0 10 -8 5 -24 -13 -21 -25 -32 -28 -99 -31 l-76 -4 -33 53 -33 54
-3 -52 -3 -53 -50 0 c-37 0 -49 4 -49 15 0 19 -43 20 -59 1 -8 -9 -36 -14 -86
-14 l-75 -1 0 94 0 95 50 0 c41 0 52 -4 65 -24z"/>
<path d="M1188 1288 l-46 -71 36 -51 c49 -71 55 -76 47 -43 -7 27 -7 27 48 27
50 0 55 -2 61 -24 12 -48 81 -40 74 8 -2 15 -23 30 -69 53 -86 41 -113 74
-106 131 2 23 4 42 3 42 0 0 -22 -32 -48 -72z"/>
<path d="M677 1290 c-23 -19 -25 -26 -25 -101 0 -66 4 -85 19 -100 21 -21 78
-26 96 -8 8 8 17 8 31 0 33 -18 79 -13 101 10 17 18 19 34 18 101 -2 71 -5 83
-26 99 -28 23 -60 24 -86 5 -17 -12 -22 -12 -39 0 -28 20 -59 17 -89 -6z"/>
<path d="M461 896 c-19 -22 -4 -56 23 -56 32 0 53 26 39 48 -14 23 -47 27 -62
8z"/>
<path d="M457 614 c-13 -13 -7 -24 14 -24 11 0 19 5 17 12 -5 14 -22 21 -31
12z"/>
<path d="M890 570 c0 -41 3 -50 18 -50 42 0 60 70 23 90 -34 18 -41 12 -41
-40z"/>
<path d="M617 566 c-4 -10 -5 -21 -2 -24 9 -9 17 6 13 25 -3 17 -4 17 -11 -1z"/>
<path d="M450 536 c0 -11 9 -16 26 -16 31 0 28 23 -4 28 -15 2 -22 -2 -22 -12z"/>
</g>
</svg>
