<?xml version="1.0" standalone="no"?>
<!DOCTYPE svg PUBLIC "-//W3C//DTD SVG 20010904//EN"
 "http://www.w3.org/TR/2001/REC-SVG-20010904/DTD/svg10.dtd">
<svg version="1.0" xmlns="http://www.w3.org/2000/svg"
 width="2535.000000pt" height="685.000000pt" viewBox="0 0 2535.000000 685.000000"
 preserveAspectRatio="xMidYMid meet">

<g transform="translate(0.000000,685.000000) scale(0.100000,-0.100000)"
fill="#000000" stroke="none">
<path d="M10705 6341 c-50 -22 -91 -69 -105 -119 -12 -46 -12 -48 1 -95 26
-94 122 -148 219 -123 83 22 130 83 130 169 0 82 -33 135 -105 168 -51 23 -89
23 -140 0z m130 -31 c72 -35 106 -130 71 -198 -50 -95 -160 -113 -234 -38 -30
29 -36 43 -40 90 -6 69 20 115 81 145 52 26 70 26 122 1z"/>
<path d="M10700 6180 c0 -92 1 -100 19 -100 16 0 20 8 23 37 2 25 8 39 19 41
23 4 49 -25 49 -54 0 -18 5 -24 23 -24 21 0 23 4 19 33 -2 17 -11 39 -19 48
-12 14 -12 17 2 23 11 4 15 16 13 38 -4 40 -34 58 -100 58 l-48 0 0 -100z
m104 47 c9 -15 7 -21 -9 -33 -36 -27 -67 -1 -51 42 8 20 46 14 60 -9z"/>
<path d="M9512 6239 c-90 -11 -245 -53 -331 -89 -425 -175 -668 -520 -648
-920 14 -295 153 -528 421 -709 84 -57 282 -158 421 -216 212 -88 414 -180
460 -210 66 -42 132 -117 147 -169 7 -23 13 -72 13 -111 0 -123 -69 -229 -185
-284 -76 -36 -202 -37 -272 -3 -121 60 -187 175 -213 375 l-6 47 -421 0 -421
0 6 -132 c3 -73 12 -168 22 -211 9 -43 15 -82 13 -87 -2 -4 -88 114 -193 263
-104 149 -263 374 -352 501 -90 127 -163 236 -163 243 0 7 154 243 342 525
452 679 748 1128 748 1133 0 3 -198 5 -439 5 l-439 0 -185 -292 c-194 -309
-255 -407 -563 -897 -105 -168 -196 -307 -202 -309 -9 -3 -12 175 -12 747 l0
751 -420 0 -420 0 0 -330 c0 -181 -3 -330 -6 -330 -4 0 -39 24 -78 54 -315
242 -754 294 -1129 134 l-69 -29 -67 27 c-36 15 -70 31 -74 34 -4 4 58 102
138 219 80 116 145 214 145 216 0 3 -227 5 -505 5 l-505 0 -77 -117 c-42 -65
-148 -228 -235 -362 -87 -134 -189 -281 -226 -328 -37 -46 -94 -135 -128 -198
-34 -62 -124 -209 -200 -327 -77 -117 -232 -356 -344 -530 -113 -174 -208
-317 -212 -317 -5 -1 -8 490 -8 1089 l0 1090 -425 0 -425 0 0 -1665 0 -1665
507 2 507 3 251 367 c137 202 253 367 257 368 3 0 16 -30 28 -67 51 -159 136
-298 265 -431 189 -196 429 -312 709 -342 172 -19 378 13 545 84 l75 33 82
-33 c344 -139 703 -115 1017 68 37 22 92 59 122 83 29 24 56 41 59 38 3 -4 6
-44 6 -90 l0 -83 420 0 420 0 0 720 c0 396 4 720 8 720 5 0 213 -324 463 -720
l454 -720 493 0 c392 0 492 3 486 13 -4 6 -27 40 -52 75 -24 35 -42 65 -40 67
2 3 20 -6 39 -19 309 -210 854 -263 1279 -124 349 113 576 379 636 743 21 130
14 337 -14 446 -73 277 -263 467 -657 659 -88 43 -223 106 -300 141 -164 73
-299 146 -372 200 -97 73 -131 171 -98 285 22 77 96 153 175 179 71 24 198 17
256 -13 73 -38 126 -119 148 -226 l13 -61 418 -3 418 -2 -6 102 c-14 209 -66
353 -189 520 -212 289 -672 454 -1106 397z m-4907 -986 c33 -8 84 -26 112 -40
65 -30 167 -106 195 -144 l21 -28 68 64 c75 70 192 133 289 156 85 19 223 14
305 -11 211 -65 375 -233 431 -440 41 -154 12 -349 -73 -484 l-25 -39 40 -76
c55 -104 75 -184 74 -306 0 -74 -5 -118 -22 -170 -60 -194 -221 -357 -410
-416 -208 -65 -455 -9 -611 141 l-62 59 -67 -62 c-244 -226 -615 -220 -851 13
-127 126 -189 272 -189 444 0 119 43 260 104 348 13 18 11 25 -16 70 -79 127
-108 315 -73 461 82 343 417 545 760 460z"/>
<path d="M21310 2474 c-14 -2 -52 -9 -85 -15 -325 -59 -618 -294 -735 -590
-18 -46 -36 -87 -39 -91 -3 -4 -6 145 -6 330 l0 337 -224 3 c-124 1 -228 -1
-232 -5 -4 -5 -3 -222 2 -483 5 -261 8 -531 7 -599 l-3 -123 -359 583 c-197
321 -365 594 -372 607 -15 22 -16 22 -222 20 l-207 -3 -3 -957 -2 -958 234 0
234 0 -4 290 c-2 160 -6 421 -8 580 -2 160 0 290 4 290 10 0 32 -35 440 -688
l295 -472 210 3 210 2 0 342 c0 188 2 339 4 337 3 -2 21 -44 41 -92 69 -168
164 -296 301 -406 390 -312 983 -292 1344 46 90 84 153 168 209 280 73 147 97
245 103 426 l6 152 -567 0 -566 0 0 -195 0 -195 286 0 285 0 -7 -22 c-35 -114
-142 -218 -269 -262 -67 -23 -224 -32 -298 -17 -240 51 -415 286 -417 563 -1
180 87 364 221 463 195 144 459 134 631 -24 31 -29 67 -68 78 -87 l22 -34 270
0 270 0 -6 28 c-4 15 -22 59 -41 99 -110 234 -350 425 -640 508 -73 21 -117
27 -230 30 -77 2 -151 2 -165 -1z"/>
<path d="M11170 1491 l0 -961 370 0 c384 0 538 10 628 39 40 14 52 15 52 5 0
-7 -4 -16 -10 -19 -34 -21 13 -25 278 -25 l287 1 84 139 84 140 278 0 279 0 0
-140 0 -140 243 2 242 3 0 955 0 955 -240 0 -239 0 -368 -535 c-202 -294 -409
-597 -460 -672 -51 -76 -96 -137 -99 -138 -3 0 -7 21 -7 46 -7 166 -97 307
-243 377 -37 17 -68 35 -68 39 -1 4 8 9 18 13 31 9 114 97 143 151 34 62 58
153 58 215 0 72 -27 186 -57 240 -39 72 -130 154 -215 194 -129 60 -177 66
-630 72 l-408 6 0 -962z m780 503 c43 -25 64 -65 64 -124 -1 -63 -27 -108 -77
-131 -34 -15 -66 -19 -174 -19 l-133 0 0 151 0 151 143 -4 c121 -2 147 -6 177
-24z m1550 -534 l0 -270 -161 0 c-143 0 -160 2 -155 16 9 22 307 524 312 524
2 0 4 -121 4 -270z m-1476 -176 c51 -26 76 -60 83 -112 12 -89 -24 -158 -102
-193 -34 -16 -67 -19 -207 -19 l-168 0 0 176 0 175 178 -3 c156 -3 182 -5 216
-24z"/>
<path d="M14040 1490 l0 -960 231 0 231 0 -7 587 c-4 324 -4 585 1 580 4 -4
171 -267 369 -585 l362 -577 211 -3 212 -2 0 960 0 960 -231 0 -232 0 7 -427
c3 -236 9 -508 12 -605 4 -100 3 -178 -2 -178 -5 1 -160 247 -344 547 -184
301 -352 573 -372 605 l-38 58 -205 0 -205 0 0 -960z"/>
<path d="M15680 1490 l0 -962 428 5 c379 4 437 7 517 25 376 84 586 281 674
637 l18 70 7 -105 c16 -212 64 -327 191 -456 95 -97 179 -144 324 -180 130
-33 304 -34 429 -3 253 62 424 230 494 484 21 79 22 92 22 760 l1 680 -240 0
-240 0 -5 -670 c-6 -734 -4 -711 -67 -785 -53 -61 -160 -86 -258 -59 -50 14
-124 88 -145 144 -12 33 -15 156 -20 705 l-5 665 -242 3 -243 2 -1 -372 0
-373 -25 85 c-89 304 -278 512 -544 598 -136 45 -233 53 -662 59 l-408 6 0
-963z m829 515 c221 -52 334 -230 334 -520 0 -282 -95 -441 -304 -506 -49 -15
-92 -19 -220 -19 l-159 0 0 530 0 530 143 0 c91 0 165 -6 206 -15z"/>
</g>
</svg>
